<mxfile host="app.diagrams.net" modified="2022-02-17T08:31:39.251Z" agent="5.0 (Macintosh; Intel Mac OS X 10_15_7) AppleWebKit/605.1.15 (KHTML, like Gecko) Version/14.1.2 Safari/605.1.15" etag="uqwcIVGkDV7G_AddFfU1" version="16.5.6" type="github">
  <diagram name="Page-1" id="e7e014a7-5840-1c2e-5031-d8a46d1fe8dd">
    <mxGraphModel dx="788" dy="538" grid="1" gridSize="10" guides="1" tooltips="1" connect="1" arrows="1" fold="1" page="1" pageScale="1" pageWidth="1169" pageHeight="826" background="none" math="0" shadow="0">
      <root>
        <mxCell id="0" />
        <mxCell id="1" parent="0" />
        <mxCell id="gMjj1C3U8HJatT0L1t91-66" value="" style="ellipse;html=1;shape=startState;fillColor=#000000;strokeColor=#ff0000;rounded=1;" vertex="1" parent="1">
          <mxGeometry x="450" y="270" width="30" height="30" as="geometry" />
        </mxCell>
        <mxCell id="gMjj1C3U8HJatT0L1t91-67" value="" style="edgeStyle=orthogonalEdgeStyle;html=1;verticalAlign=bottom;endArrow=open;endSize=8;rounded=0;entryX=0.5;entryY=0;entryDx=0;entryDy=0;" edge="1" source="gMjj1C3U8HJatT0L1t91-66" parent="1" target="gMjj1C3U8HJatT0L1t91-68">
          <mxGeometry relative="1" as="geometry">
            <mxPoint x="465" y="320" as="targetPoint" />
          </mxGeometry>
        </mxCell>
        <mxCell id="gMjj1C3U8HJatT0L1t91-68" value="Account Exist?" style="rhombus;whiteSpace=wrap;html=1;rounded=1;" vertex="1" parent="1">
          <mxGeometry x="420" y="350" width="90" height="80" as="geometry" />
        </mxCell>
        <mxCell id="gMjj1C3U8HJatT0L1t91-69" value="no" style="edgeStyle=orthogonalEdgeStyle;html=1;align=left;verticalAlign=bottom;endArrow=open;endSize=8;rounded=0;entryX=0;entryY=0.5;entryDx=0;entryDy=0;" edge="1" source="gMjj1C3U8HJatT0L1t91-68" parent="1" target="gMjj1C3U8HJatT0L1t91-72">
          <mxGeometry x="-1" relative="1" as="geometry">
            <mxPoint x="610" y="345" as="targetPoint" />
          </mxGeometry>
        </mxCell>
        <mxCell id="gMjj1C3U8HJatT0L1t91-70" value="yes" style="edgeStyle=orthogonalEdgeStyle;html=1;align=left;verticalAlign=top;endArrow=open;endSize=8;rounded=0;entryX=0.5;entryY=0;entryDx=0;entryDy=0;" edge="1" source="gMjj1C3U8HJatT0L1t91-68" parent="1" target="gMjj1C3U8HJatT0L1t91-75">
          <mxGeometry x="-1" relative="1" as="geometry">
            <mxPoint x="465" y="460" as="targetPoint" />
          </mxGeometry>
        </mxCell>
        <mxCell id="gMjj1C3U8HJatT0L1t91-72" value="Activity" style="rounded=1;whiteSpace=wrap;html=1;arcSize=40;" vertex="1" parent="1">
          <mxGeometry x="570" y="370" width="120" height="40" as="geometry" />
        </mxCell>
        <mxCell id="gMjj1C3U8HJatT0L1t91-74" value="" style="endArrow=open;endFill=1;endSize=12;html=1;rounded=0;strokeColor=#000000;exitX=0.5;exitY=1;exitDx=0;exitDy=0;entryX=0.5;entryY=0;entryDx=0;entryDy=0;" edge="1" parent="1" source="gMjj1C3U8HJatT0L1t91-72" target="gMjj1C3U8HJatT0L1t91-75">
          <mxGeometry width="160" relative="1" as="geometry">
            <mxPoint x="490" y="460" as="sourcePoint" />
            <mxPoint x="470" y="430" as="targetPoint" />
            <Array as="points">
              <mxPoint x="630" y="430" />
              <mxPoint x="465" y="430" />
            </Array>
          </mxGeometry>
        </mxCell>
        <mxCell id="gMjj1C3U8HJatT0L1t91-75" value="Login" style="rounded=1;whiteSpace=wrap;html=1;arcSize=40;" vertex="1" parent="1">
          <mxGeometry x="405" y="470" width="120" height="40" as="geometry" />
        </mxCell>
        <mxCell id="gMjj1C3U8HJatT0L1t91-79" value="" style="whiteSpace=wrap;html=1;shape=partialRectangle;top=0;left=0;bottom=1;right=0;points=[[0,1],[1,1]];fillColor=none;align=center;verticalAlign=bottom;routingCenterY=0.5;snapToPoint=1;recursiveResize=0;autosize=1;treeFolding=1;treeMoving=1;newEdgeStyle={&quot;edgeStyle&quot;:&quot;entityRelationEdgeStyle&quot;,&quot;startArrow&quot;:&quot;none&quot;,&quot;endArrow&quot;:&quot;none&quot;,&quot;segment&quot;:10,&quot;curved&quot;:1};rounded=1;strokeColor=#000000;strokeWidth=5;" vertex="1" parent="1">
          <mxGeometry x="340" y="520" width="285" height="20" as="geometry" />
        </mxCell>
        <mxCell id="gMjj1C3U8HJatT0L1t91-81" value="" style="whiteSpace=wrap;html=1;shape=partialRectangle;top=0;left=0;bottom=1;right=0;points=[[0,1],[1,1]];fillColor=none;align=center;verticalAlign=bottom;routingCenterY=0.5;snapToPoint=1;recursiveResize=0;autosize=1;treeFolding=1;treeMoving=1;newEdgeStyle={&quot;edgeStyle&quot;:&quot;entityRelationEdgeStyle&quot;,&quot;startArrow&quot;:&quot;none&quot;,&quot;endArrow&quot;:&quot;none&quot;,&quot;segment&quot;:10,&quot;curved&quot;:1};rounded=1;strokeColor=#000000;strokeWidth=5;" vertex="1" parent="1">
          <mxGeometry x="340" y="640" width="285" height="10" as="geometry" />
        </mxCell>
        <mxCell id="gMjj1C3U8HJatT0L1t91-84" value="" style="endArrow=open;endFill=1;endSize=12;html=1;rounded=0;strokeColor=#000000;exitX=0.5;exitY=1;exitDx=0;exitDy=0;entryX=0.437;entryY=1.1;entryDx=0;entryDy=0;entryPerimeter=0;" edge="1" parent="1" source="gMjj1C3U8HJatT0L1t91-75" target="gMjj1C3U8HJatT0L1t91-79">
          <mxGeometry width="160" relative="1" as="geometry">
            <mxPoint x="490" y="540" as="sourcePoint" />
            <mxPoint x="650" y="540" as="targetPoint" />
          </mxGeometry>
        </mxCell>
        <mxCell id="gMjj1C3U8HJatT0L1t91-85" value="Account" style="rounded=1;whiteSpace=wrap;html=1;arcSize=40;" vertex="1" parent="1">
          <mxGeometry x="340" y="580" width="120" height="40" as="geometry" />
        </mxCell>
        <mxCell id="gMjj1C3U8HJatT0L1t91-86" value="" style="edgeStyle=orthogonalEdgeStyle;html=1;verticalAlign=bottom;endArrow=open;endSize=8;rounded=0;" edge="1" source="gMjj1C3U8HJatT0L1t91-85" parent="1">
          <mxGeometry relative="1" as="geometry">
            <mxPoint x="400" y="650" as="targetPoint" />
          </mxGeometry>
        </mxCell>
        <mxCell id="gMjj1C3U8HJatT0L1t91-87" value="" style="endArrow=open;endFill=1;endSize=12;html=1;rounded=0;strokeColor=#000000;exitX=0.212;exitY=1.017;exitDx=0;exitDy=0;exitPerimeter=0;entryX=0.5;entryY=0;entryDx=0;entryDy=0;" edge="1" parent="1" source="gMjj1C3U8HJatT0L1t91-79" target="gMjj1C3U8HJatT0L1t91-85">
          <mxGeometry width="160" relative="1" as="geometry">
            <mxPoint x="490" y="590" as="sourcePoint" />
            <mxPoint x="650" y="590" as="targetPoint" />
          </mxGeometry>
        </mxCell>
        <mxCell id="gMjj1C3U8HJatT0L1t91-88" value="" style="endArrow=open;endFill=1;endSize=12;html=1;rounded=0;strokeColor=#000000;exitX=0.77;exitY=1.058;exitDx=0;exitDy=0;exitPerimeter=0;entryX=0.45;entryY=-0.073;entryDx=0;entryDy=0;entryPerimeter=0;" edge="1" parent="1" source="gMjj1C3U8HJatT0L1t91-79" target="gMjj1C3U8HJatT0L1t91-89">
          <mxGeometry width="160" relative="1" as="geometry">
            <mxPoint x="410.41999999999985" y="550.3399999999999" as="sourcePoint" />
            <mxPoint x="559" y="570" as="targetPoint" />
          </mxGeometry>
        </mxCell>
        <mxCell id="gMjj1C3U8HJatT0L1t91-89" value="Password" style="rounded=1;whiteSpace=wrap;html=1;arcSize=40;" vertex="1" parent="1">
          <mxGeometry x="505" y="580" width="120" height="40" as="geometry" />
        </mxCell>
        <mxCell id="gMjj1C3U8HJatT0L1t91-91" value="" style="endArrow=open;endFill=1;endSize=12;html=1;rounded=0;strokeColor=#000000;entryX=0.77;entryY=1.033;entryDx=0;entryDy=0;entryPerimeter=0;exitX=0.458;exitY=0.975;exitDx=0;exitDy=0;exitPerimeter=0;" edge="1" parent="1" source="gMjj1C3U8HJatT0L1t91-89" target="gMjj1C3U8HJatT0L1t91-81">
          <mxGeometry width="160" relative="1" as="geometry">
            <mxPoint x="430" y="610" as="sourcePoint" />
            <mxPoint x="590" y="610" as="targetPoint" />
          </mxGeometry>
        </mxCell>
        <mxCell id="gMjj1C3U8HJatT0L1t91-92" value="" style="endArrow=open;endFill=1;endSize=12;html=1;rounded=0;strokeColor=#000000;exitX=0.471;exitY=1.017;exitDx=0;exitDy=0;exitPerimeter=0;" edge="1" parent="1" source="gMjj1C3U8HJatT0L1t91-81" target="gMjj1C3U8HJatT0L1t91-93">
          <mxGeometry width="160" relative="1" as="geometry">
            <mxPoint x="400" y="660" as="sourcePoint" />
            <mxPoint x="474" y="690" as="targetPoint" />
          </mxGeometry>
        </mxCell>
        <mxCell id="gMjj1C3U8HJatT0L1t91-93" value="Verify" style="rhombus;whiteSpace=wrap;html=1;rounded=1;" vertex="1" parent="1">
          <mxGeometry x="450" y="690" width="50" height="30" as="geometry" />
        </mxCell>
        <mxCell id="gMjj1C3U8HJatT0L1t91-94" value="" style="ellipse;html=1;shape=endState;fillColor=#000000;strokeColor=#ff0000;rounded=1;" vertex="1" parent="1">
          <mxGeometry x="460" y="770" width="30" height="30" as="geometry" />
        </mxCell>
        <mxCell id="gMjj1C3U8HJatT0L1t91-95" value="Yes" style="endArrow=open;endFill=1;endSize=12;html=1;rounded=0;strokeColor=#000000;exitX=0.5;exitY=1;exitDx=0;exitDy=0;" edge="1" parent="1" source="gMjj1C3U8HJatT0L1t91-93" target="gMjj1C3U8HJatT0L1t91-94">
          <mxGeometry width="160" relative="1" as="geometry">
            <mxPoint x="400" y="660" as="sourcePoint" />
            <mxPoint x="560" y="660" as="targetPoint" />
          </mxGeometry>
        </mxCell>
        <mxCell id="gMjj1C3U8HJatT0L1t91-96" value="No" style="endArrow=open;endFill=1;endSize=12;html=1;rounded=0;strokeColor=#000000;exitX=0;exitY=0.5;exitDx=0;exitDy=0;entryX=0;entryY=0.5;entryDx=0;entryDy=0;" edge="1" parent="1" source="gMjj1C3U8HJatT0L1t91-93" target="gMjj1C3U8HJatT0L1t91-75">
          <mxGeometry width="160" relative="1" as="geometry">
            <mxPoint x="400" y="660" as="sourcePoint" />
            <mxPoint x="560" y="660" as="targetPoint" />
            <Array as="points">
              <mxPoint x="260" y="705" />
              <mxPoint x="260" y="490" />
            </Array>
          </mxGeometry>
        </mxCell>
      </root>
    </mxGraphModel>
  </diagram>
</mxfile>
